<svg width="171" height="83" viewBox="0 0 171 83" fill="none" xmlns="http://www.w3.org/2000/svg">
<g clip-path="url(#clip0_5299_1910)">
<path opacity="0.03" fill-rule="evenodd" clip-rule="evenodd" d="M63.6119 72.2804H120.384C123.028 72.2804 125.172 70.1367 125.172 67.4924C125.172 64.848 123.028 62.7044 120.384 62.7044C120.384 62.7044 116.28 60.5607 116.28 57.9164C116.28 55.272 118.983 53.1284 122.317 53.1284H129.276C131.92 53.1284 134.064 50.9847 134.064 48.3404C134.064 45.696 131.92 43.5524 129.276 43.5524H114.228C116.872 43.5524 119.016 41.4087 119.016 38.7644C119.016 36.12 116.872 33.9764 114.228 33.9764H141.588C144.232 33.9764 146.376 31.8327 146.376 29.1884C146.376 26.544 144.232 24.4004 141.588 24.4004H74.5559C71.9116 24.4004 69.7679 26.544 69.7679 29.1884C69.7679 31.8327 71.9116 33.9764 74.5559 33.9764H47.1959C44.5516 33.9764 42.4079 36.12 42.4079 38.7644C42.4079 41.4087 44.5516 43.5524 47.1959 43.5524H64.2959C66.9403 43.5524 69.0839 45.696 69.0839 48.3404C69.0839 50.9847 66.9403 53.1284 64.2959 53.1284H36.9359C34.2916 53.1284 32.1479 55.272 32.1479 57.9164C32.1479 60.5607 34.2916 62.7044 36.9359 62.7044H63.6119C60.9676 62.7044 58.8239 64.848 58.8239 67.4924C58.8239 70.1367 60.9676 72.2804 63.6119 72.2804ZM136.8 48.3404C136.8 50.9847 138.944 53.1284 141.588 53.1284C144.232 53.1284 146.376 50.9847 146.376 48.3404C146.376 45.696 144.232 43.5524 141.588 43.5524C138.944 43.5524 136.8 45.696 136.8 48.3404Z" fill="#222222"/>
<path fill-rule="evenodd" clip-rule="evenodd" d="M105.112 23.7158L111.474 70.1205L112.045 74.7758C112.23 76.2758 111.163 77.6404 109.664 77.8251L69.6079 82.743C68.1084 82.927 66.7433 81.8607 66.5592 80.3607L60.3924 30.1364C60.3003 29.3865 60.8336 28.704 61.5835 28.6119C61.5882 28.6113 61.593 28.6107 61.5977 28.6102L64.9209 28.2374" fill="white"/>
<path d="M105.959 23.6003C105.894 23.1325 105.463 22.8053 104.995 22.8693C104.528 22.9335 104.201 23.3648 104.264 23.8326L105.959 23.6003ZM111.474 70.1211L112.322 70.0164L112.322 70.011L112.321 70.0048L111.474 70.1211ZM65.0162 29.0877C65.4855 29.0351 65.8232 28.612 65.7706 28.1427C65.718 27.6735 65.2949 27.3357 64.8256 27.3883L65.0162 29.0877ZM104.264 23.8326L110.627 70.2367L112.321 70.0048L105.959 23.6003L104.264 23.8326ZM110.625 70.2251L111.197 74.8804L112.894 74.6724L112.322 70.0164L110.625 70.2251ZM111.197 74.8804C111.324 75.9118 110.591 76.8503 109.559 76.9768L109.768 78.6738C111.736 78.4324 113.136 76.641 112.894 74.6724L111.197 74.8804ZM109.559 76.9768L69.504 81.8948L69.7127 83.5925L109.768 78.6738L109.559 76.9768ZM69.504 81.8948C68.4733 82.0213 67.5345 81.2881 67.4079 80.2573L65.7106 80.4659C65.9524 82.4338 67.744 83.8339 69.7127 83.5925L69.504 81.8948ZM67.4079 80.2573L61.2411 30.0328L59.5439 30.2412L65.7106 80.4659L67.4079 80.2573ZM61.2411 30.0328C61.2066 29.7515 61.4066 29.4956 61.6878 29.4611L61.4794 27.7638C60.2608 27.9134 59.3942 29.0226 59.5439 30.2412L61.2411 30.0328ZM61.6878 29.4611C61.6895 29.4608 61.6913 29.4606 61.6931 29.4604L61.5025 27.7611C61.4948 27.762 61.4871 27.7629 61.4794 27.7638L61.6878 29.4611ZM61.6931 29.4604L65.0162 29.0877L64.8256 27.3883L61.5025 27.7611L61.6931 29.4604ZM67.7033 28.7863L70.8406 28.4343L70.6504 26.735L67.5128 27.087L67.7033 28.7863ZM70.6504 26.735L67.5128 27.087L67.7033 28.7863L70.8406 28.4343L70.6504 26.735Z" fill="#222222"/>
<path opacity="0.1" fill-rule="evenodd" clip-rule="evenodd" d="M103.38 26.6367L109.139 68.6917L109.657 72.9106C109.824 74.2697 108.87 75.505 107.527 75.6706L71.6566 80.0748C70.3139 80.2397 69.0895 79.2711 68.9226 77.912L63.3481 32.5106C63.256 31.7607 63.7893 31.0782 64.5392 30.9861L68.9767 30.4413" fill="#222222"/>
<path d="M73.8186 16.8761C73.8186 15.8373 74.6606 14.9951 75.6996 14.9951H106.861C107.359 14.9951 107.837 15.1931 108.19 15.5457L117.385 24.7351C117.738 25.0879 117.937 25.5665 117.937 26.0656V68.8601C117.937 69.8991 117.095 70.7411 116.056 70.7411H75.6996C74.6606 70.7411 73.8186 69.8991 73.8186 68.8601V16.8761Z" fill="white" stroke="#222222" stroke-width="1.71"/>
<path d="M107.164 15.7832V23.7157C107.164 24.849 108.082 25.7677 109.216 25.7677H114.642" stroke="#222222" stroke-width="1.71" stroke-linecap="round" stroke-linejoin="round"/>
<path opacity="0.1" d="M81.1717 24.0576C80.2271 24.0576 79.4617 24.8232 79.4617 25.7676H81.1717V24.0576ZM98.9557 24.0576H81.1717V25.7676H98.9557V24.0576ZM100.666 25.7676C100.666 24.8232 99.9003 24.0576 98.9557 24.0576V25.7676H100.666ZM98.9557 27.4776C99.9003 27.4776 100.666 26.712 100.666 25.7676H98.9557V27.4776ZM81.1717 27.4776H98.9557V25.7676H81.1717V27.4776ZM79.4617 25.7676C79.4617 26.712 80.2271 27.4776 81.1717 27.4776V25.7676H79.4617ZM81.1717 32.2656C80.2271 32.2656 79.4617 33.0312 79.4617 33.9756H81.1717V32.2656ZM110.584 32.2656H81.1717V33.9756H110.584V32.2656ZM112.294 33.9756C112.294 33.0312 111.528 32.2656 110.584 32.2656V33.9756H112.294ZM110.584 35.6856C111.528 35.6856 112.294 34.92 112.294 33.9756H110.584V35.6856ZM81.1717 35.6856H110.584V33.9756H81.1717V35.6856ZM79.4617 33.9756C79.4617 34.92 80.2271 35.6856 81.1717 35.6856V33.9756H79.4617ZM81.1717 42.8676V41.1576C80.2271 41.1576 79.4617 41.9232 79.4617 42.8676H81.1717ZM81.1717 42.8676H79.4617C79.4617 43.812 80.2271 44.5776 81.1717 44.5776V42.8676ZM110.584 42.8676H81.1717V44.5776H110.584V42.8676ZM110.584 42.8676V44.5776C111.528 44.5776 112.294 43.812 112.294 42.8676H110.584ZM110.584 42.8676H112.294C112.294 41.9232 111.528 41.1576 110.584 41.1576V42.8676ZM81.1717 42.8676H110.584V41.1576H81.1717V42.8676ZM81.1717 50.0496C80.2271 50.0496 79.4617 50.815 79.4617 51.7596H81.1717V50.0496ZM110.584 50.0496H81.1717V51.7596H110.584V50.0496ZM112.294 51.7596C112.294 50.815 111.528 50.0496 110.584 50.0496V51.7596H112.294ZM110.584 53.4696C111.528 53.4696 112.294 52.7042 112.294 51.7596H110.584V53.4696ZM81.1717 53.4696H110.584V51.7596H81.1717V53.4696ZM79.4617 51.7596C79.4617 52.7042 80.2271 53.4696 81.1717 53.4696V51.7596H79.4617ZM81.1717 60.6516V58.9416C80.2271 58.9416 79.4617 59.707 79.4617 60.6516H81.1717ZM81.1717 60.6516H79.4617C79.4617 61.5962 80.2271 62.3616 81.1717 62.3616V60.6516ZM98.9557 60.6516H81.1717V62.3616H98.9557V60.6516ZM98.9557 60.6516V62.3616C99.9003 62.3616 100.666 61.5962 100.666 60.6516H98.9557ZM98.9557 60.6516H100.666C100.666 59.707 99.9003 58.9416 98.9557 58.9416V60.6516ZM81.1717 60.6516H98.9557V58.9416H81.1717V60.6516Z" fill="#222222"/>
</g>
<defs>
<clipPath id="clip0_5299_1910">
<rect width="171" height="82.08" fill="white" transform="translate(0 0.459961)"/>
</clipPath>
</defs>
</svg>
